<!DOCTYPE svg PUBLIC "-//W3C//DTD SVG 1.1//EN" "http://www.w3.org/Graphics/SVG/1.1/DTD/svg11.dtd">
<!-- Uploaded to: SVG Repo, www.svgrepo.com, Transformed by: SVG Repo Mixer Tools -->
<svg width="165px" height="165px" viewBox="-3.6 -3.6 43.20 43.20" xmlns="http://www.w3.org/2000/svg" xmlns:xlink="http://www.w3.org/1999/xlink" aria-hidden="true" role="img" class="iconify iconify--twemoji" preserveAspectRatio="xMidYMid meet" fill="#000000">
<g id="SVGRepo_bgCarrier" stroke-width="0">
<path transform="translate(-3.6, -3.6), scale(2.7)" fill="#42a98f" d="M9.166.33a2.25 2.25 0 00-2.332 0l-5.25 3.182A2.25 2.25 0 00.5 5.436v5.128a2.25 2.25 0 001.084 1.924l5.25 3.182a2.25 2.25 0 002.332 0l5.25-3.182a2.25 2.25 0 001.084-1.924V5.436a2.25 2.25 0 00-1.084-1.924L9.166.33z" strokewidth="0"/>
</g>
<g id="SVGRepo_tracerCarrier" stroke-linecap="round" stroke-linejoin="round" stroke="#CCCCCC" stroke-width="0.072"/>
<g id="SVGRepo_iconCarrier">
<path fill="#0d786b" d="M36 32a4 4 0 0 1-4 4H4a4 4 0 0 1-4-4V4a4 4 0 0 1 4-4h28a4 4 0 0 1 4 4v28z"/>
<path fill="#f2f3f1" d="M12.792 9.156c0-1.55.992-2.418 2.325-2.418c1.333 0 2.325.868 2.325 2.418V24.72h5.52c1.58 0 2.263 1.179 2.232 2.232c-.061 1.025-.868 2.048-2.231 2.048H15.21c-1.519 0-2.418-.992-2.418-2.543V9.156z"/>
</g>
</svg>